<?xml version="1.0" encoding="iso-8859-1"?>
<!-- Generator: Adobe Illustrator 16.0.0, SVG Export Plug-In . SVG Version: 6.00 Build 0)  -->
<!DOCTYPE svg PUBLIC "-//W3C//DTD SVG 1.1//EN" "http://www.w3.org/Graphics/SVG/1.1/DTD/svg11.dtd">
<svg version="1.1" id="Capa_1" xmlns="http://www.w3.org/2000/svg" xmlns:xlink="http://www.w3.org/1999/xlink" x="0px" y="0px"
	 width="47.168px" height="47.168px" viewBox="0 0 47.168 47.168" style="enable-background:new 0 0 47.168 47.168;"
	 xml:space="preserve">
<g>
	<g id="Layer_68_6_">
		<g>
			<path d="M47.168,36.918V6.699H0v30.219h19.252v1.945H9.188v1.605h28.179v-1.605h-9.846v-1.945H47.168z M3.45,32.469V10.149
				h40.267v22.317H3.45V32.469z"/>
			<path d="M19.403,25.084H10.04l-2.774,0.141v1.908h18.281v-2.049h-5.595H19.403z M22.403,26.344h-5.777v-0.383h5.777V26.344z"/>
			<polygon points="11.484,13.228 27.873,13.228 27.873,13.696 29.318,13.696 29.318,11.782 10.04,11.782 10.04,24.494 
				25.546,24.494 25.546,23.051 11.484,23.051 			"/>
			<path d="M27.807,15.921h7.137v2.608h1.451v-4.061H26.355v15.057h5.713v-1.238c0,0.268-0.215,0.484-0.483,0.484
				s-0.483-0.217-0.483-0.484s0.217-0.482,0.483-0.482s0.483,0.215,0.483,0.482v-1.258h-4.262V15.921L27.807,15.921z"/>
			<path d="M32.883,31.014h7.021V19.203h-7.021V31.014z M36.482,30.506c-0.225,0-0.405-0.184-0.405-0.406s0.181-0.404,0.405-0.404
				c0.224,0,0.404,0.182,0.404,0.404S36.706,30.506,36.482,30.506z M36.549,19.692c0.094,0,0.169,0.076,0.169,0.17
				c0,0.093-0.075,0.169-0.169,0.169s-0.17-0.076-0.17-0.169S36.455,19.692,36.549,19.692z M35.54,20.259h2.021v0.163H35.54V20.259z
				 M34.009,21.003l4.769-0.002v8.114c-1.823,0.008-3.863,0.016-4.769,0.008V21.003z"/>
		</g>
	</g>
</g>
<g>
</g>
<g>
</g>
<g>
</g>
<g>
</g>
<g>
</g>
<g>
</g>
<g>
</g>
<g>
</g>
<g>
</g>
<g>
</g>
<g>
</g>
<g>
</g>
<g>
</g>
<g>
</g>
<g>
</g>
</svg>
